<svg width="16" height="16" viewBox="0 0 16 16" fill="none" xmlns="http://www.w3.org/2000/svg">
<g clip-path="url(#clip0)">
<path d="M15.941 7.81067C15.815 7.62732 12.7869 3.33325 8.00021 3.33325C3.8928 3.33325 0.23274 7.60266 0.0787376 7.78466C-0.0259203 7.90867 -0.0259203 8.09067 0.0787376 8.21533C0.23274 8.39733 3.8928 12.6667 8.00021 12.6667C12.1076 12.6667 15.7676 8.39733 15.9216 8.21533C16.0183 8.10067 16.027 7.93467 15.941 7.81067ZM8.00021 12.0001C4.7075 12.0001 1.57676 8.86002 0.781436 8.00001C1.57545 7.13934 4.70284 3.99995 8.00021 3.99995C11.8529 3.99995 14.5723 7.13534 15.2363 7.98201C14.4696 8.81468 11.3209 12.0001 8.00021 12.0001Z" fill="black"/>
<path d="M7.99996 5.33325C6.52927 5.33325 5.33325 6.52927 5.33325 7.99996C5.33325 9.47064 6.52927 10.6667 7.99996 10.6667C9.47064 10.6667 10.6667 9.47064 10.6667 7.99996C10.6667 6.52927 9.47064 5.33325 7.99996 5.33325ZM7.99996 10C6.89728 10 5.99992 9.10267 5.99992 7.99999C5.99992 6.89731 6.89728 5.99995 7.99996 5.99995C9.10263 5.99995 9.99999 6.89731 9.99999 7.99999C9.99999 9.10267 9.10263 10 7.99996 10Z" fill="black"/>
</g>
<defs>
<clipPath id="clip0">
<rect width="16" height="16" fill="white"/>
</clipPath>
</defs>
</svg>
